<?xml version="1.0" encoding="UTF-8" standalone="no"?>
<!DOCTYPE svg PUBLIC "-//W3C//DTD SVG 1.1//EN" "http://www.w3.org/Graphics/SVG/1.1/DTD/svg11.dtd">
<svg xmlns="http://www.w3.org/2000/svg" version="1.1" viewBox="0.00 0.00 390.00 238.00">
<path fill="#000000" d="
  M 152.16 100.03
  C 154.42 70.66 183.23 62.65 207.02 58.04
  Q 224.05 54.74 241.17 51.85
  Q 248.08 50.69 252.39 51.31
  Q 264.60 53.09 272.66 62.95
  A 0.47 0.47 0.0 0 0 273.47 62.48
  L 260.34 28.93
  A 0.64 0.64 0.0 0 0 259.75 28.53
  L 230.26 28.61
  A 0.61 0.61 0.0 0 1 229.65 28.00
  L 229.63 13.27
  Q 229.62 12.41 230.48 12.41
  L 270.51 12.41
  A 1.35 1.34 -11.0 0 1 271.76 13.25
  L 291.44 63.70
  A 0.98 0.97 66.1 0 0 292.78 64.22
  L 326.63 47.37
  A 0.44 0.44 0.0 0 1 327.27 47.76
  L 327.26 103.17
  A 0.68 0.67 -89.6 0 1 326.58 103.85
  L 308.31 103.79
  A 0.84 0.84 0.0 0 0 307.52 104.94
  L 312.36 117.26
  A 0.84 0.84 0.0 0 0 313.33 117.78
  C 354.50 108.69 390.21 144.72 382.02 185.66
  C 373.49 228.34 321.71 245.79 288.76 218.00
  C 258.06 192.09 262.76 145.25 296.65 124.30
  A 1.07 1.07 0.0 0 0 297.08 123.00
  L 287.46 98.40
  A 0.47 0.47 0.0 0 0 286.60 98.36
  L 244.92 182.31
  Q 244.69 182.77 244.16 182.77
  L 154.29 182.78
  A 0.41 0.40 5.1 0 0 153.89 183.11
  C 149.10 210.32 126.75 230.48 98.98 231.39
  C 50.64 232.98 22.22 178.11 51.08 139.29
  C 66.01 119.22 93.50 111.09 116.97 119.94
  C 136.98 127.48 150.52 144.42 154.04 165.72
  A 0.93 0.93 0.0 0 0 154.96 166.50
  L 233.80 166.50
  A 1.21 1.20 13.1 0 0 234.88 165.83
  L 242.54 150.41
  A 0.44 0.44 0.0 0 0 242.15 149.78
  L 173.25 149.77
  A 2.16 2.11 -20.8 0 1 171.67 149.08
  L 135.61 109.91
  A 4.04 4.03 69.0 0 0 132.69 108.61
  Q 100.01 108.22 67.00 108.07
  Q 64.10 108.06 61.68 109.11
  C 38.56 119.13 25.12 140.62 23.69 165.82
  Q 23.63 166.88 22.56 166.88
  L 8.57 166.83
  Q 8.10 166.83 8.08 166.36
  C 6.91 135.60 26.05 108.45 52.78 95.16
  A 1.32 1.31 77.0 0 0 53.51 93.98
  L 53.63 61.41
  Q 53.64 60.95 54.09 60.95
  L 112.44 60.94
  A 2.68 2.66 68.1 0 1 114.37 61.77
  L 151.11 100.40
  A 0.61 0.61 0.0 0 0 152.16 100.03
  Z
  M 208.28 74.47
  C 195.63 76.89 171.02 82.19 168.79 98.56
  Q 168.61 99.82 169.89 99.82
  Q 211.09 99.77 252.53 99.80
  Q 257.15 99.80 259.74 98.51
  C 266.00 95.40 268.37 88.76 265.83 82.16
  C 263.18 75.25 255.52 66.02 247.04 67.36
  Q 238.60 68.69 208.28 74.47
  Z
  M 310.55 87.48
  A 0.46 0.46 0.0 0 0 311.01 87.02
  L 311.02 74.13
  A 0.46 0.46 0.0 0 0 310.36 73.72
  L 298.20 79.75
  A 0.46 0.46 0.0 0 0 297.98 80.34
  L 300.80 87.18
  A 0.46 0.46 0.0 0 0 301.23 87.46
  L 310.55 87.48
  Z
  M 119.38 92.14
  A 0.58 0.58 0.0 0 0 119.81 91.16
  L 106.78 77.42
  A 0.58 0.58 0.0 0 0 106.36 77.24
  L 70.35 77.23
  A 0.58 0.58 0.0 0 0 69.77 77.81
  L 69.82 91.13
  A 0.58 0.58 0.0 0 0 70.39 91.71
  L 119.38 92.14
  Z
  M 164.22 116.14
  A 0.30 0.30 0.0 0 0 164.00 116.64
  L 179.31 133.40
  A 0.30 0.30 0.0 0 0 179.53 133.50
  L 250.76 133.49
  A 0.30 0.30 0.0 0 0 251.03 133.32
  L 259.35 116.58
  A 0.30 0.30 0.0 0 0 259.09 116.15
  L 164.22 116.14
  Z
  M 77.58 158.47
  L 87.78 148.30
  Q 88.73 147.36 89.67 148.31
  L 107.32 166.13
  A 1.25 1.22 -21.1 0 0 108.18 166.50
  L 136.53 166.54
  A 0.89 0.88 -6.0 0 0 137.40 165.47
  C 133.54 147.21 117.92 133.93 99.54 132.84
  C 66.41 130.86 44.19 167.33 62.07 195.65
  C 81.95 227.15 127.70 218.72 137.21 183.37
  Q 137.37 182.77 136.75 182.77
  L 102.02 182.77
  Q 100.77 182.77 99.90 181.88
  L 77.57 159.33
  Q 77.14 158.90 77.58 158.47
  Z
  M 334.65 177.26
  L 321.04 182.53
  A 0.69 0.68 -20.7 0 1 320.16 182.14
  L 303.81 140.19
  A 0.79 0.79 0.0 0 0 302.62 139.84
  C 287.83 150.40 281.23 167.92 286.24 185.33
  C 294.88 215.34 332.28 225.03 354.77 203.29
  C 372.59 186.07 370.44 157.35 351.85 142.03
  Q 338.85 131.32 320.27 133.19
  Q 319.75 133.24 319.38 133.36
  A 0.67 0.67 0.0 0 0 318.96 134.24
  L 335.27 175.86
  A 1.08 1.07 -21.3 0 1 334.65 177.26
  Z"
/>
</svg>
